<svg width="277" height="73" viewBox="0 0 277 73" fill="none" xmlns="http://www.w3.org/2000/svg">
<path d="M153 26.1667C153 26.6418 153.219 27.0976 153.61 27.4336C154.001 27.7696 154.531 27.9583 155.083 27.9583C155.636 27.9583 156.166 27.7696 156.556 27.4336C156.947 27.0976 157.167 26.6418 157.167 26.1667C157.167 25.6915 156.947 25.2358 156.556 24.8998C156.166 24.5638 155.636 24.375 155.083 24.375C154.531 24.375 154.001 24.5638 153.61 24.8998C153.219 25.2358 153 25.6915 153 26.1667Z" stroke="white" stroke-width="4" stroke-linecap="round" stroke-linejoin="round"/>
<path d="M136.333 49.4583L146.75 51.25L148.312 48.5625" stroke="white" stroke-width="2" stroke-linecap="round" stroke-linejoin="round"/>
<path d="M159.25 56.625V49.4583L150.917 44.0833L153 33.3333" stroke="white" stroke-width="2" stroke-linecap="round" stroke-linejoin="round"/>
<path d="M142.583 40.5V35.125L153 33.3333L159.25 38.7083L165.5 40.5" stroke="white" stroke-width="2" stroke-linecap="round" stroke-linejoin="round"/>
<path d="M27.2656 56.4062C27.0156 56.1562 26.8281 55.8594 26.7031 55.5156C26.6094 55.1719 26.3594 54.8906 25.9531 54.6719C25.8906 54.2031 25.7969 53.6719 25.6719 53.0781C25.5781 52.4531 25.4688 51.8281 25.3438 51.2031C25.25 50.5469 25.1719 49.9062 25.1094 49.2812C25.0781 48.625 25.1094 48.0312 25.2031 47.5C25.2656 47.2188 25.3594 46.9531 25.4844 46.7031C25.6406 46.4531 25.7812 46.2188 25.9062 46C26.0625 45.75 26.1719 45.5 26.2344 45.25C26.3281 45 26.3438 44.75 26.2812 44.5C26.4688 44.4688 26.5781 44.375 26.6094 44.2188C26.6719 44.0312 26.8281 43.9688 27.0781 44.0312C27.2969 43.3438 27.5312 42.7031 27.7812 42.1094C28.0312 41.5156 28.2969 40.9375 28.5781 40.375C28.8594 39.8125 29.1406 39.25 29.4219 38.6875C29.7344 38.0938 30.0156 37.4375 30.2656 36.7188C29.7344 36.2188 29.3438 35.6875 29.0938 35.125C28.875 34.5312 28.7031 33.9375 28.5781 33.3438C28.4531 32.75 28.3594 32.1562 28.2969 31.5625C28.2344 30.9375 28.1094 30.3125 27.9219 29.6875C28.2969 29.125 28.75 28.6719 29.2812 28.3281C29.8125 27.9531 30.3906 27.6562 31.0156 27.4375C31.6719 27.1875 32.375 27 33.125 26.875C33.875 26.7188 34.6719 26.5469 35.5156 26.3594C37.0156 25.8906 38.3594 25.5312 39.5469 25.2812C40.7344 25 41.8906 24.7812 43.0156 24.625C44.1406 24.4375 45.3125 24.2812 46.5312 24.1562C47.75 24 49.1562 23.7812 50.75 23.5C50.7812 23.5938 50.8281 23.6406 50.8906 23.6406C50.9844 23.6406 51.0938 23.6406 51.2188 23.6406C51.3125 23.8594 51.4844 23.9688 51.7344 23.9688C51.7344 23.875 51.7188 23.7969 51.6875 23.7344C51.6875 23.6406 51.6875 23.5625 51.6875 23.5C51.75 23.5 51.8281 23.5156 51.9219 23.5469C52.0469 23.5781 52.1406 23.6094 52.2031 23.6406C52.2969 23.6719 52.375 23.6719 52.4375 23.6406C52.5 23.5781 52.5156 23.4688 52.4844 23.3125C52.8594 23.9688 53.3438 24.5156 53.9375 24.9531C54.5312 25.3594 55.1875 25.7188 55.9062 26.0312C55.9375 26.3125 55.9375 26.5156 55.9062 26.6406C55.9062 26.7656 55.8906 26.8906 55.8594 27.0156C55.8281 27.1094 55.8125 27.2344 55.8125 27.3906C55.8125 27.5156 55.8438 27.7031 55.9062 27.9531C55.4062 28.7969 54.8281 29.4531 54.1719 29.9219C53.5469 30.3906 52.875 30.75 52.1562 31C51.4375 31.25 50.6719 31.4375 49.8594 31.5625C49.0781 31.6875 48.2656 31.8281 47.4219 31.9844C46.6094 32.1094 45.7812 32.2969 44.9375 32.5469C44.0938 32.7969 43.2656 33.1719 42.4531 33.6719C42.2031 33.5781 41.9688 33.5469 41.75 33.5781C41.5625 33.5781 41.3594 33.6094 41.1406 33.6719C40.9219 33.7344 40.6719 33.7969 40.3906 33.8594C40.1406 33.9219 39.8281 33.9219 39.4531 33.8594C39.2031 34.0781 38.9062 34.2344 38.5625 34.3281C38.25 34.4219 37.9219 34.5156 37.5781 34.6094C37.7344 34.9531 37.7969 35.2969 37.7656 35.6406C37.7656 35.9844 37.8125 36.2812 37.9062 36.5312C39.2188 36.6562 40.6719 36.6562 42.2656 36.5312C43.8594 36.375 45.4219 36.2656 46.9531 36.2031C46.9844 36.3594 46.9688 36.4688 46.9062 36.5312C46.8438 36.5938 46.8125 36.7031 46.8125 36.8594C47.0938 37.0469 47.3594 37.2812 47.6094 37.5625C47.8594 37.8438 48.1094 38.125 48.3594 38.4062C48.6406 38.6562 48.9219 38.875 49.2031 39.0625C49.4844 39.2188 49.8125 39.2812 50.1875 39.25C50.3438 39.5625 50.4531 39.8906 50.5156 40.2344C50.5781 40.5781 50.5312 40.9375 50.375 41.3125C49.75 41.7188 49.1406 42.1406 48.5469 42.5781C47.9531 42.9844 47.3281 43.3594 46.6719 43.7031C46.0469 44.0469 45.3594 44.3281 44.6094 44.5469C43.8594 44.7656 43.0469 44.8594 42.1719 44.8281C42.0156 44.8281 41.875 44.8281 41.75 44.8281C41.6562 44.8281 41.5312 44.7656 41.375 44.6406C41.0625 44.7969 40.6406 44.8594 40.1094 44.8281C39.6094 44.7656 39.1875 44.8125 38.8438 44.9688C38.4062 44.8125 37.8906 44.7344 37.2969 44.7344C36.7344 44.7344 36.2344 44.6562 35.7969 44.5C35.2344 45.3125 34.7031 46.1719 34.2031 47.0781C33.7031 47.9531 33.2656 48.8906 32.8906 49.8906C34.1719 50.0781 35.2344 50.1562 36.0781 50.125C36.9219 50.0938 37.7188 50.0312 38.4688 49.9375C39.2188 49.8438 39.9844 49.75 40.7656 49.6562C41.5781 49.5625 42.5625 49.5312 43.7188 49.5625C44.5 49.1875 45.3906 48.9375 46.3906 48.8125C47.4219 48.6562 48.375 48.4375 49.25 48.1562C49.5625 48.25 49.8281 48.4375 50.0469 48.7188C50.2656 48.9688 50.4688 49.2344 50.6562 49.5156C50.875 49.7656 51.0938 49.9844 51.3125 50.1719C51.5312 50.3594 51.8125 50.4219 52.1562 50.3594C52.3125 50.5156 52.4062 50.7031 52.4375 50.9219C52.5 51.1406 52.5469 51.3438 52.5781 51.5312C52.6406 51.7188 52.7188 51.875 52.8125 52C52.9062 52.0938 53.0781 52.125 53.3281 52.0938C52.7344 53.3125 52.0625 54.25 51.3125 54.9062C50.5938 55.5625 49.7656 56.0781 48.8281 56.4531C47.9219 56.7969 46.8906 57.0625 45.7344 57.25C44.6094 57.4062 43.3438 57.6094 41.9375 57.8594C41.5938 57.9219 41.2969 57.9219 41.0469 57.8594C40.8281 57.7656 40.5938 57.7188 40.3438 57.7188C39.4688 57.875 38.4219 58.0312 37.2031 58.1875C36.0156 58.3438 34.8125 58.4062 33.5938 58.375C32.375 58.3438 31.2031 58.1875 30.0781 57.9062C28.9531 57.625 28.0156 57.125 27.2656 56.4062ZM77.8438 45.3438C77.8125 45.5 77.7812 45.6406 77.75 45.7656C77.7188 45.8594 77.6875 45.9531 77.6562 46.0469C77.625 46.1406 77.6094 46.2656 77.6094 46.4219C77.6094 46.5469 77.6094 46.7188 77.6094 46.9375C76.6719 48.5938 75.4844 49.9844 74.0469 51.1094C72.6406 52.2344 71.0781 53.2344 69.3594 54.1094C67.6719 54.9531 65.9062 55.7344 64.0625 56.4531C62.2188 57.1406 60.4219 57.8906 58.6719 58.7031C57.9219 58.5156 57.3438 58.2031 56.9375 57.7656C56.5625 57.3281 56.2656 56.8281 56.0469 56.2656C55.8594 55.6719 55.7188 55.0312 55.625 54.3438C55.5625 53.625 55.5 52.8906 55.4375 52.1406C55.5312 51.7969 55.6562 51.5156 55.8125 51.2969C56 51.0469 56.0938 50.7031 56.0938 50.2656C56.3438 49.4531 56.5938 48.6562 56.8438 47.875C57.0938 47.0938 57.25 46.2969 57.3125 45.4844C57.4062 45.2344 57.5781 45.0625 57.8281 44.9688C57.9844 43.4688 57.9844 41.9531 57.8281 40.4219C57.7031 38.8594 57.4531 37.4062 57.0781 36.0625C57.1094 35.75 57.1406 35.5312 57.1719 35.4062C57.2344 35.25 57.2344 35.1406 57.1719 35.0781C57.1406 34.8281 57.2188 34.7031 57.4062 34.7031C57.625 34.7031 57.8438 34.7031 58.0625 34.7031C58.0625 34.2344 57.9688 33.7656 57.7812 33.2969C57.625 32.8281 57.4688 32.2969 57.3125 31.7031C57.5312 31.2344 57.6719 30.7812 57.7344 30.3438C57.7969 29.875 57.9375 29.4688 58.1562 29.125C59.8438 29.6562 61.4531 30.2969 62.9844 31.0469C64.5469 31.7969 66.0781 32.3438 67.5781 32.6875C68.7031 33.5 69.8594 34.3125 71.0469 35.125C72.2344 35.9062 73.3125 36.7812 74.2812 37.75C75.25 38.6875 76.0625 39.7656 76.7188 40.9844C77.375 42.2031 77.75 43.6562 77.8438 45.3438ZM66.7344 47.9219C67.3906 47.6719 68.0312 47.4062 68.6562 47.125C69.3125 46.8438 69.9062 46.5312 70.4375 46.1875C71 45.8125 71.5 45.3906 71.9375 44.9219C72.375 44.4531 72.7344 43.8906 73.0156 43.2344C72.8281 42.8594 72.5781 42.5312 72.2656 42.25C71.9531 41.9375 71.6406 41.6562 71.3281 41.4062C71.0156 41.125 70.7031 40.8438 70.3906 40.5625C70.1094 40.2812 69.875 39.9375 69.6875 39.5312C69.2812 39.4688 68.9219 39.3594 68.6094 39.2031C68.2969 39.0156 67.9844 38.8438 67.6719 38.6875C67.3906 38.5 67.0781 38.3281 66.7344 38.1719C66.4219 38.0156 66.0469 37.9219 65.6094 37.8906C64.9219 37.5469 64.2969 37.2969 63.7344 37.1406C63.2031 36.9844 62.7969 36.7812 62.5156 36.5312C62.2969 36.5312 62.125 36.5781 62 36.6719C62.3125 37.8594 62.5469 38.9844 62.7031 40.0469C62.8594 41.0781 62.9375 42.125 62.9375 43.1875C62.9688 44.2188 62.9219 45.2812 62.7969 46.375C62.6719 47.4688 62.5 48.6562 62.2812 49.9375C62.5938 49.9062 62.875 49.8438 63.125 49.75C63.4062 49.625 63.6719 49.5 63.9219 49.375C64.2031 49.25 64.4844 49.1406 64.7656 49.0469C65.0781 48.9219 65.4375 48.8438 65.8438 48.8125C65.9375 48.625 66.0625 48.4688 66.2188 48.3438C66.4062 48.2188 66.5781 48.0781 66.7344 47.9219ZM105.781 31.3281C105.844 32.0156 105.953 32.6094 106.109 33.1094C106.266 33.6094 106.438 34.0938 106.625 34.5625C106.781 35 106.922 35.4375 107.047 35.875C107.203 36.2812 107.312 36.7812 107.375 37.375C107.125 38.1875 106.938 38.9375 106.812 39.625C106.719 40.3125 106.609 41.0312 106.484 41.7812C105.984 42.875 105.5 43.8438 105.031 44.6875C104.562 45.5312 104.188 46.2656 103.906 46.8906C103.75 47.0469 103.609 47.2344 103.484 47.4531C103.391 47.6406 103.281 47.8438 103.156 48.0625C103.094 48.1562 103.016 48.2969 102.922 48.4844C102.828 48.6719 102.75 48.7969 102.688 48.8594L101.75 48.5312L101.562 49.7031L100.906 49.8906L100.438 50.4531C99.8438 51.4844 99.2188 52.3594 98.5625 53.0781C97.9062 53.7656 97.1562 54.3906 96.3125 54.9531C95.5 55.4844 94.5625 55.9844 93.5 56.4531C92.4688 56.9219 91.2969 57.4375 89.9844 58C89.4531 57.9375 88.9844 57.9062 88.5781 57.9062C88.2031 57.875 87.8438 57.8438 87.5 57.8125C86.9062 57.8125 86.1719 57.7656 85.2969 57.6719C85.2031 57.4219 85.0625 57.25 84.875 57.1562C84.6875 57.0625 84.5156 57.0156 84.3594 57.0156C83.8281 56.7656 83.4219 56.4062 83.1406 55.9375C82.8906 55.4375 82.6406 54.9062 82.3906 54.3438C82.2344 54 82.0781 53.6875 81.9219 53.4062C81.7656 53.0938 81.5938 52.7812 81.4062 52.4688L82.2031 52.2344L81.1719 51.1094C81.1094 51.0156 81.0312 50.9375 80.9375 50.875C80.8438 50.7812 80.7656 50.6875 80.7031 50.5938L80.6562 49.8438C80.5625 47.6875 80.5156 45.7188 80.5156 43.9375C80.5469 42.125 80.7969 40.5156 81.2656 39.1094V38.5938C81.3594 37.9062 81.4531 37.3438 81.5469 36.9062C81.6406 36.4375 81.7188 36 81.7812 35.5938C81.875 34.9062 82.0156 34.2656 82.2031 33.6719C82.6406 33.5781 82.9688 33.4062 83.1875 33.1562C83.4062 32.875 83.5938 32.625 83.75 32.4062C84.1875 32.375 84.4844 32.4375 84.6406 32.5938C84.7969 32.75 84.9531 33 85.1094 33.3438C85.2656 33.625 85.4531 33.9375 85.6719 34.2812C85.9219 34.625 86.2812 34.8906 86.75 35.0781C86.8125 35.3281 86.8906 35.5938 86.9844 35.875C87.1094 36.125 87.2344 36.4062 87.3594 36.7188C87.6094 37.25 87.8281 37.8125 88.0156 38.4062C88.2344 38.9688 88.3594 39.5156 88.3906 40.0469C88.0781 40.6406 87.8281 41.3281 87.6406 42.1094C87.4844 42.8906 87.375 43.6875 87.3125 44.5C87.2812 45.2812 87.2969 46.0469 87.3594 46.7969C87.4531 47.5156 87.5938 48.125 87.7812 48.625L88.0625 49.2344L88.8594 49.1406C89.7969 48.8906 90.6406 48.625 91.3906 48.3438C92.1719 48.0312 92.8906 47.6719 93.5469 47.2656C94.2031 46.8594 94.8281 46.3906 95.4219 45.8594C96.0156 45.2969 96.6406 44.6562 97.2969 43.9375C97.9531 43.2188 98.5156 42.4062 98.9844 41.5C99.4844 40.5625 99.8906 39.5938 100.203 38.5938C100.547 37.5938 100.797 36.6094 100.953 35.6406C101.141 34.6406 101.266 33.7031 101.328 32.8281C101.859 32.6406 102.125 32.2656 102.125 31.7031L102.031 31.1875C101.906 31 101.906 30.7812 102.031 30.5312C102.219 29.9375 102.656 29.4844 103.344 29.1719C103.844 29.4844 104.281 29.8281 104.656 30.2031C105.062 30.5781 105.438 30.9531 105.781 31.3281ZM107.234 31.5625C107.203 31.3125 107.141 31.0938 107.047 30.9062C106.984 30.6875 106.906 30.4531 106.812 30.2031C106.656 29.8281 106.516 29.4219 106.391 28.9844C106.266 28.5469 106.203 28.0312 106.203 27.4375C106.266 27.125 106.344 26.9062 106.438 26.7812C106.531 26.625 106.625 26.5 106.719 26.4062L106.906 25.5625H107.609C107.859 25.5938 108.109 25.6094 108.359 25.6094C108.641 25.6094 108.906 25.6094 109.156 25.6094C110.344 25.6094 111.562 25.5625 112.812 25.4688C114.062 25.375 115.344 25.2656 116.656 25.1406C118.094 24.9531 119.641 24.8125 121.297 24.7188C121.453 24.375 121.547 24.1562 121.578 24.0625C121.641 23.9688 121.703 23.8594 121.766 23.7344L122.281 23.4531C123 23.4219 123.5 23.5156 123.781 23.7344C124.062 23.9219 124.281 24.1094 124.438 24.2969C125.25 24.2344 126.078 24.1562 126.922 24.0625C127.766 23.9375 128.641 23.8125 129.547 23.6875C130.797 23.5312 132.062 23.375 133.344 23.2188C134.625 23.0625 135.875 22.9844 137.094 22.9844C137.625 22.9844 138.125 23 138.594 23.0312C139.062 23.0625 139.516 23.1094 139.953 23.1719L140.516 23.5938C140.641 23.8125 140.797 24.0156 140.984 24.2031C141.172 24.3906 141.391 24.5781 141.641 24.7656C142.109 25.1406 142.562 25.6094 143 26.1719C143.469 26.7344 143.641 27.5625 143.516 28.6562L143.281 29.125C143.156 29.25 143 29.375 142.812 29.5L142.344 30.1094H141.828C141.516 30.1094 141.281 30.1406 141.125 30.2031C140.969 30.2344 140.781 30.2969 140.562 30.3906C140.438 30.4531 140.297 30.5156 140.141 30.5781C139.984 30.6094 139.812 30.6562 139.625 30.7188C139.281 30.6875 139.016 30.6719 138.828 30.6719C138.641 30.6719 138.422 30.6719 138.172 30.6719C137.234 30.6719 136.219 30.7344 135.125 30.8594C134.031 30.9844 132.969 31.125 131.938 31.2812C131.188 31.375 130.469 31.4688 129.781 31.5625C129.094 31.625 128.469 31.6875 127.906 31.75C127.594 32.5625 127.312 33.2812 127.062 33.9062C126.812 34.5312 126.547 35.1562 126.266 35.7812C125.984 36.4062 125.719 37.0469 125.469 37.7031C125.219 38.3281 124.984 39.0312 124.766 39.8125C124.391 40.375 124.078 40.9219 123.828 41.4531C123.578 41.9531 123.375 42.5312 123.219 43.1875C122.75 43.7188 122.406 44.2969 122.188 44.9219C122 45.5469 121.828 46.0781 121.672 46.5156L121.484 47.2188C121.266 47.4375 121.125 47.6094 121.062 47.7344C121.031 47.8594 120.953 48 120.828 48.1562C120.734 48.5625 120.609 48.9531 120.453 49.3281C120.391 49.4844 120.328 49.6562 120.266 49.8438C120.203 50 120.188 50.125 120.219 50.2188C120.156 50.5625 120.062 50.8281 119.938 51.0156C119.938 51.2031 119.922 51.3906 119.891 51.5781C119.859 51.7656 119.828 51.9531 119.797 52.1406C119.734 52.3594 119.688 52.5625 119.656 52.75C119.625 52.9062 119.641 53.0625 119.703 53.2188C119.797 53.3438 119.891 53.4688 119.984 53.5938C120.078 53.7188 120.156 53.875 120.219 54.0625C120.281 54.125 120.359 54.1719 120.453 54.2031C120.547 54.2344 120.625 54.2812 120.688 54.3438C120.938 54.5625 121.172 54.6875 121.391 54.7188L121.859 55.2812C122.047 56.4062 121.875 57.2812 121.344 57.9062C120.781 58.625 119.844 58.9844 118.531 58.9844L117.875 58.9375C117.656 58.7188 117.531 58.5781 117.5 58.5156C117.219 58.3906 116.984 58.2812 116.797 58.1875C116.609 58.125 116.438 57.9844 116.281 57.7656C116.219 57.7031 116.141 57.6719 116.047 57.6719C115.953 57.6406 115.875 57.5938 115.812 57.5312C115.5 57.4375 115.25 57.3281 115.062 57.2031L114.547 56.9219C114.578 56.6094 114.594 56.3906 114.594 56.2656C114.344 55.9219 114.141 55.5469 113.984 55.1406C113.859 54.7344 113.75 54.3125 113.656 53.875C113.562 53.5312 113.469 53.2188 113.375 52.9375C113.312 52.6562 113.203 52.4062 113.047 52.1875C112.984 50 113.188 48.1719 113.656 46.7031C114.125 45.2031 114.641 43.75 115.203 42.3438C115.516 41.5938 115.812 40.8281 116.094 40.0469C116.375 39.2656 116.625 38.4688 116.844 37.6562L117.359 37.1406C117.578 36.9531 117.719 36.8438 117.781 36.8125C117.781 36.4062 117.859 36.0156 118.016 35.6406C118.172 35.2344 118.344 34.8281 118.531 34.4219C118.656 34.1719 118.766 33.9219 118.859 33.6719C118.984 33.4219 119.062 33.2031 119.094 33.0156C118.875 33.0156 118.672 33.0312 118.484 33.0625C118.328 33.0625 118.156 33.0781 117.969 33.1094C117.562 33.2031 117.172 33.25 116.797 33.25C116.516 33.25 116.312 33.2344 116.188 33.2031C115.938 33.3281 115.703 33.4062 115.484 33.4375C115.266 33.4375 115.047 33.4375 114.828 33.4375H114.266H113.703C113.328 33.4375 113.031 33.4844 112.812 33.5781C112.375 33.5781 112.094 33.5781 111.969 33.5781C111.844 33.5781 111.703 33.5781 111.547 33.5781H110.984H110.422C110.172 33.5781 109.891 33.5625 109.578 33.5312C109.266 33.4688 108.938 33.3438 108.594 33.1562L108.266 32.7812C108.078 32.4375 107.906 32.25 107.75 32.2188L107.234 32.0781V31.5625Z" fill="white"/>
<path d="M193.031 50.0625C192.844 50.5938 192.562 51.1406 192.188 51.7031C191.844 52.2344 191.422 52.7188 190.922 53.1562C190.453 53.5625 189.922 53.9062 189.328 54.1875C188.734 54.4688 188.109 54.625 187.453 54.6562C187.047 54.5625 186.766 54.4531 186.609 54.3281C186.484 54.2344 186.344 54.1406 186.188 54.0469C186.094 53.9844 186 53.9375 185.906 53.9062C185.844 53.8438 185.781 53.7969 185.719 53.7656L185.156 53.5312L185.344 52.9219C185.406 52.6719 185.391 52.4844 185.297 52.3594C185.203 52.2031 185.016 52 184.734 51.75C184.641 51.6562 184.547 51.5625 184.453 51.4688C184.359 51.375 184.281 51.2812 184.219 51.1875L183.422 50.2969L184.688 49.9688C185.469 49.75 185.984 49.4688 186.234 49.125C186.516 48.7812 186.625 48.2031 186.562 47.3906C185.938 47.2656 185.406 47.25 184.969 47.3438C184.562 47.4375 184.141 47.5469 183.703 47.6719C183.141 47.8281 182.562 47.9688 181.969 48.0938C181.406 48.1875 180.781 48.2344 180.094 48.2344C179.844 48.2344 179.609 48.2344 179.391 48.2344C179.172 48.2031 178.938 48.1719 178.688 48.1406L178.219 48.0469C178.156 47.7031 178.094 47.5156 178.031 47.4844C177.969 47.4219 177.906 47.3594 177.844 47.2969C177.688 47.1406 177.516 46.9375 177.328 46.6875C177.172 46.4062 177.141 46.0625 177.234 45.6562C177.078 45.375 176.984 45.0938 176.953 44.8125C176.766 45.1875 176.625 45.5781 176.531 45.9844L176.344 46.4531L175.875 46.5469C175.812 46.5781 175.766 46.6562 175.734 46.7812C175.703 46.875 175.688 46.9531 175.688 47.0156L175.453 47.8125C175.391 47.875 175.328 47.9375 175.266 48C175.203 48.0312 175.141 48.0781 175.078 48.1406C175.016 48.4219 174.938 48.7031 174.844 48.9844C174.75 49.2656 174.656 49.5312 174.562 49.7812C174.406 50.1875 174.266 50.5938 174.141 51C174.047 51.375 174.016 51.75 174.047 52.125L173.859 52.6406C173.703 52.8281 173.531 52.9844 173.344 53.1094C173.156 53.2031 172.969 53.2969 172.781 53.3906C172.719 53.4531 172.625 53.5156 172.5 53.5781C172.406 53.6094 172.328 53.6406 172.266 53.6719L172.125 54.1875L171.562 54.2812C171.219 54.3438 170.969 54.3906 170.812 54.4219C170.688 54.4531 170.531 54.4688 170.344 54.4688L169.875 54.4219C169.531 54.1406 169.266 53.9219 169.078 53.7656C168.891 53.5781 168.672 53.4062 168.422 53.25C168.141 52.875 167.984 52.5938 167.953 52.4062C167.922 52.2188 167.891 52.0469 167.859 51.8906C167.797 51.7031 167.766 51.5469 167.766 51.4219C167.734 51.2969 167.688 51.2031 167.625 51.1406L167.016 50.5781L167.531 50.1562L167.578 49.3594C168.203 47.7656 168.859 46.2344 169.547 44.7656C170.266 43.2969 171 41.7969 171.75 40.2656C172 39.7656 172.234 39.2656 172.453 38.7656C172.703 38.2656 172.953 37.7656 173.203 37.2656C173.172 37.1719 173.156 37.0625 173.156 36.9375C173.156 36.8125 173.188 36.6719 173.25 36.5156C173.594 35.9844 173.875 35.5156 174.094 35.1094C174.312 34.6719 174.531 34.2344 174.75 33.7969C175 33.2656 175.25 32.75 175.5 32.25C175.781 31.75 176.125 31.2344 176.531 30.7031L177.281 30.375C177.375 30.3438 177.484 30.3125 177.609 30.2812C177.734 30.2188 177.875 30.1875 178.031 30.1875L178.734 30.2812C179.609 29.875 180.375 29.3125 181.031 28.5938C181.688 27.8438 182.359 26.9531 183.047 25.9219L183.516 25.2656L184.125 25.6406C184.281 25.7344 184.5 25.8281 184.781 25.9219C185.062 25.9844 185.359 26.0625 185.672 26.1562C186.234 26.2812 186.766 26.4219 187.266 26.5781C187.766 26.7344 188.172 26.9688 188.484 27.2812C188.672 27.7812 188.781 28.1562 188.812 28.4062C188.844 28.6562 188.891 28.9062 188.953 29.1562C189.047 29.6875 189.125 30.2188 189.188 30.75C189.281 31.2812 189.344 31.875 189.375 32.5312C189.531 33.0625 189.656 33.5938 189.75 34.125C189.875 34.625 189.984 35.1406 190.078 35.6719C190.234 36.4219 190.391 37.1562 190.547 37.875C190.703 38.5625 190.906 39.2188 191.156 39.8438C191.406 39.8438 191.562 39.8594 191.625 39.8906C191.781 39.8281 191.938 39.7812 192.094 39.75C192.281 39.7188 192.484 39.6875 192.703 39.6562L193.219 39.6094L193.406 40.0781C193.438 40.2344 193.594 40.3906 193.875 40.5469C194.281 40.5781 194.578 40.6719 194.766 40.8281C194.953 40.9531 195.125 41.0938 195.281 41.25C195.406 41.375 195.531 41.4688 195.656 41.5312L196.359 41.8125L195.984 42.5156C195.672 43.0781 195.219 43.625 194.625 44.1562C194.062 44.6562 193.422 45.0781 192.703 45.4219C192.734 45.6094 192.75 45.7969 192.75 45.9844C192.781 46.1406 192.828 46.3125 192.891 46.5C192.984 47.0312 193.062 47.5781 193.125 48.1406C193.188 48.7031 193.188 49.2812 193.125 49.875L193.031 50.0625ZM179.484 41.9531C180.422 41.8906 181.266 41.8281 182.016 41.7656C182.797 41.6719 183.656 41.5312 184.594 41.3438C184.375 40.4062 184.141 39.4375 183.891 38.4375C183.641 37.4062 183.375 36.3906 183.094 35.3906L182.812 35.8594C182.188 36.5156 181.578 37.25 180.984 38.0625C180.422 38.875 179.938 39.6406 179.531 40.3594C179.344 40.6406 179.156 40.9219 178.969 41.2031C178.781 41.4844 178.609 41.7656 178.453 42.0469C178.641 42.0156 178.812 42 178.969 42C179.156 42 179.328 41.9844 179.484 41.9531ZM215.625 54.0938C215.125 54.125 214.5 54.1094 213.75 54.0469C213.031 53.9844 212.359 54.0938 211.734 54.375C210.078 54.3125 208.391 54.1094 206.672 53.7656C204.953 53.4219 203.375 53 201.938 52.5C201.625 52.1562 201.312 51.8438 201 51.5625C200.688 51.25 200.266 51.0312 199.734 50.9062C198.984 50.3125 198.375 49.5938 197.906 48.75C197.438 47.875 197.062 46.9531 196.781 45.9844C196.5 45.0156 196.312 44.0312 196.219 43.0312C196.125 42 196.094 41.0156 196.125 40.0781C196.594 38.6719 197.25 37.4688 198.094 36.4688C198.969 35.4375 199.859 34.4219 200.766 33.4219C201.172 33.2344 201.469 33.0469 201.656 32.8594C201.875 32.6406 202.094 32.4531 202.312 32.2969C202.562 32.1094 202.797 31.9375 203.016 31.7812C203.266 31.5938 203.484 31.375 203.672 31.125C204.328 30.9688 204.891 30.75 205.359 30.4688C205.859 30.1562 206.344 29.8438 206.812 29.5312C207.281 29.1875 207.766 28.875 208.266 28.5938C208.766 28.3125 209.344 28.0938 210 27.9375C210.25 27.6562 210.547 27.4375 210.891 27.2812C211.234 27.0938 211.578 26.9219 211.922 26.7656C212.297 26.5781 212.641 26.3906 212.953 26.2031C213.297 26.0156 213.562 25.7656 213.75 25.4531C213.906 25.7031 214.125 25.7969 214.406 25.7344C214.688 25.6406 214.953 25.5469 215.203 25.4531C215.359 25.4219 215.484 25.4531 215.578 25.5469C215.703 25.6406 215.812 25.7344 215.906 25.8281C216 25.9219 216.078 25.9844 216.141 26.0156C216.234 26.0156 216.312 25.9375 216.375 25.7812C216.531 25.7812 216.578 25.8594 216.516 26.0156C216.453 26.1719 216.406 26.2812 216.375 26.3438C216.625 26.3125 216.828 26.375 216.984 26.5312C217.172 26.6562 217.453 26.7344 217.828 26.7656C217.953 26.9219 217.984 27.0469 217.922 27.1406C217.859 27.2031 217.828 27.3281 217.828 27.5156C218.766 27.7969 219.359 28.25 219.609 28.875C219.859 29.4688 219.875 30.0938 219.656 30.75C219.438 31.4062 219.047 32.0156 218.484 32.5781C217.922 33.1406 217.312 33.5156 216.656 33.7031C215.156 34.1094 213.734 34.5625 212.391 35.0625C211.078 35.5312 210 36.2344 209.156 37.1719C208.406 37.3906 207.734 37.6875 207.141 38.0625C206.578 38.4062 206.031 38.8125 205.5 39.2812C205 39.7188 204.516 40.1875 204.047 40.6875C203.609 41.1562 203.141 41.625 202.641 42.0938C202.672 42.5312 202.594 42.875 202.406 43.125C202.25 43.3438 202.094 43.5781 201.938 43.8281C202 44.2969 202.109 44.7188 202.266 45.0938C202.422 45.4375 202.594 45.7812 202.781 46.125C204.844 46.75 207.031 47.1406 209.344 47.2969C211.688 47.4531 214.031 47.5469 216.375 47.5781C216.594 47.8906 216.844 48.1875 217.125 48.4688C217.438 48.7188 217.719 49 217.969 49.3125C218.219 49.5938 218.422 49.9219 218.578 50.2969C218.734 50.6406 218.766 51.0781 218.672 51.6094C218.234 52.0781 217.75 52.5156 217.219 52.9219C216.688 53.2969 216.156 53.6875 215.625 54.0938ZM249.047 52.3125C247.547 52.375 246.219 52.3438 245.062 52.2188C243.938 52.0938 242.828 51.7969 241.734 51.3281C241.672 51.2969 241.609 51.2188 241.547 51.0938C241.484 50.9688 241.422 50.875 241.359 50.8125C241.172 50.7188 240.938 50.6875 240.656 50.7188C240.406 50.7188 240.188 50.6875 240 50.625C239.75 50.5 239.359 50.2656 238.828 49.9219C238.297 49.5469 237.812 49.2031 237.375 48.8906C236.812 48.4531 236.281 48.0156 235.781 47.5781C235.281 47.1406 234.844 46.6719 234.469 46.1719C234.375 46.0469 234.25 45.9844 234.094 45.9844C233.938 45.9531 233.797 45.9062 233.672 45.8438C232.766 46.4062 232 47.1094 231.375 47.9531C230.75 48.7969 230.156 49.6562 229.594 50.5312C229.031 51.4062 228.438 52.2344 227.812 53.0156C227.188 53.7969 226.391 54.3906 225.422 54.7969C225.141 54.7969 224.891 54.75 224.672 54.6562C224.453 54.5625 224.25 54.4375 224.062 54.2812C223.875 54.1562 223.688 54.0312 223.5 53.9062C223.312 53.7812 223.109 53.6875 222.891 53.625C222.891 53.25 222.812 52.9062 222.656 52.5938C222.531 52.2812 222.391 51.9844 222.234 51.7031C222.109 51.4219 222.016 51.1562 221.953 50.9062C221.891 50.625 221.953 50.3594 222.141 50.1094C221.953 49.9219 221.672 49.7188 221.297 49.5C221.484 49.3125 221.562 49.1406 221.531 48.9844C221.531 48.8281 221.5 48.6719 221.438 48.5156C221.375 48.3594 221.312 48.1875 221.25 48C221.219 47.8125 221.266 47.625 221.391 47.4375C221.547 47.4375 221.734 47.4062 221.953 47.3438C221.766 47.0938 221.672 46.9531 221.672 46.9219C221.703 46.8594 221.672 46.7812 221.578 46.6875C221.516 46.5 221.547 46.3906 221.672 46.3594C221.797 46.2969 221.922 46.2344 222.047 46.1719C222.172 44.6406 222.438 43.2188 222.844 41.9062C223.25 40.5938 223.703 39.3281 224.203 38.1094C224.703 36.8906 225.188 35.6562 225.656 34.4062C226.156 33.1562 226.562 31.8125 226.875 30.375C227.219 30.0312 227.484 29.625 227.672 29.1562C227.891 28.6875 228.109 28.2188 228.328 27.75C228.578 27.2812 228.844 26.8281 229.125 26.3906C229.438 25.9219 229.859 25.5469 230.391 25.2656C230.828 25.2969 231.219 25.4219 231.562 25.6406C231.906 25.8281 232.328 25.9062 232.828 25.875C232.922 26.0312 233 26.1875 233.062 26.3438C233.156 26.5 233.266 26.6562 233.391 26.8125L234.094 26.6719C234.438 26.9531 234.734 27.3125 234.984 27.75C235.266 28.1562 235.453 28.5938 235.547 29.0625C235.641 29.5312 235.625 29.9844 235.5 30.4219C235.375 30.8281 235.078 31.1562 234.609 31.4062C234.641 31.5625 234.641 31.6875 234.609 31.7812C234.609 31.8438 234.594 31.9062 234.562 31.9688C234.531 32.0312 234.516 32.0938 234.516 32.1562C234.516 32.2188 234.562 32.3125 234.656 32.4375C234.031 32.9062 233.562 33.5625 233.25 34.4062C232.938 35.25 232.766 36 232.734 36.6562C233.109 36.2812 233.516 35.9219 233.953 35.5781C234.422 35.2031 234.891 34.8438 235.359 34.5C235.859 34.1562 236.328 33.8281 236.766 33.5156C237.234 33.2031 237.656 32.8906 238.031 32.5781C239.062 31.6406 240.047 30.8906 240.984 30.3281C241.953 29.7344 242.969 29.0781 244.031 28.3594C244.281 28.2969 244.469 28.2969 244.594 28.3594C244.75 28.3906 244.906 28.4375 245.062 28.5C245.062 28.3125 245 28.2031 244.875 28.1719C244.781 28.1406 244.75 28.0156 244.781 27.7969C245.25 27.6719 245.656 27.5312 246 27.375C246.344 27.1875 246.719 27.0156 247.125 26.8594C247.406 27.1406 247.672 27.4375 247.922 27.75C248.172 28.0312 248.516 28.2031 248.953 28.2656C249.109 28.6094 249.297 28.875 249.516 29.0625C249.734 29.2188 249.953 29.375 250.172 29.5312C250.391 29.6875 250.578 29.875 250.734 30.0938C250.922 30.3125 251.031 30.6562 251.062 31.125C250.938 31.3438 250.797 31.5781 250.641 31.8281C250.516 32.0781 250.391 32.375 250.266 32.7188C249.641 33.2812 249 33.7812 248.344 34.2188C247.719 34.6562 247.078 35.0781 246.422 35.4844C245.766 35.8906 245.094 36.2969 244.406 36.7031C243.719 37.1094 243.016 37.5938 242.297 38.1562C242.141 38.375 241.938 38.5781 241.688 38.7656C241.469 38.9219 241.234 39.0938 240.984 39.2812C240.734 39.4375 240.5 39.6094 240.281 39.7969C240.062 39.9844 239.891 40.2031 239.766 40.4531C239.672 40.4844 239.578 40.5 239.484 40.5C239.391 40.5 239.297 40.5156 239.203 40.5469C239.109 40.7656 238.953 40.9375 238.734 41.0625C238.547 41.1875 238.422 41.3594 238.359 41.5781C238.828 42.5781 239.438 43.3438 240.188 43.875C240.938 44.4062 241.781 44.7969 242.719 45.0469C243.656 45.2656 244.672 45.3906 245.766 45.4219C246.859 45.4219 248 45.4219 249.188 45.4219C249.312 45.3906 249.359 45.3281 249.328 45.2344C249.328 45.1094 249.406 45.0625 249.562 45.0938C250.312 45.3438 250.891 45.7031 251.297 46.1719C251.703 46.6094 252.188 47.0469 252.75 47.4844C252.688 48.6719 252.328 49.6562 251.672 50.4375C251.016 51.2188 250.141 51.8438 249.047 52.3125Z" fill="white"/>
<path d="M69.5 68.5H105.5" stroke="white" stroke-linecap="square"/>
<path d="M23.5 68.5H59.5" stroke="white" stroke-linecap="square"/>
<path d="M213.5 68.5H249.5" stroke="white" stroke-linecap="square"/>
<path d="M170.5 68.5H206.5" stroke="white" stroke-linecap="square"/>
<path d="M118.5 68.5H154.5" stroke="white" stroke-linecap="square"/>
</svg>
