<svg width="272" height="34" viewBox="0 0 272 34" fill="none" xmlns="http://www.w3.org/2000/svg">
<path d="M1 1C1.58668 1 2.17336 1 43.8367 1.29334C85.5 1.58668 168.222 2.17336 211.521 2.37781C254.82 2.58226 256.189 2.3867 257.383 2.28596C261.342 1.95198 266.062 1.59261 270.314 1.88595C271.472 1.96583 270.459 2.76597 269.075 3.36154C267.691 3.95711 265.931 4.5438 256.811 6.01939C247.691 7.49499 231.264 9.84171 200.116 11.8329C168.969 13.824 123.599 15.3885 99.6396 16.39C74.4905 17.4413 72.7115 18.5768 71.7248 19.4627C71.2514 19.8878 71.1293 20.5442 71.2241 21.1398C71.3189 21.7354 71.71 22.322 72.4004 22.8198C74.0686 23.7087 77.4228 24.6984 95.5477 26.7607C111.326 28.2363 140.464 30.583 170.486 33.0008" stroke="#293296" stroke-width="2" stroke-linecap="round"/>
</svg>

